<svg width="332" height="228" viewBox="0 0 332 228" fill="none" xmlns="http://www.w3.org/2000/svg">
<path d="M0.868744 228V0.5H68.525L112.275 104.562C113.421 108 114.619 111.802 115.869 115.969C117.223 120.031 118.265 123.781 118.994 127.219H119.931C119.723 123.677 119.619 119.979 119.619 116.125C119.723 112.167 119.775 108.417 119.775 104.875V0.5H177.275V228H111.806L65.5562 122.375C64.3062 119.146 63.0562 115.708 61.8062 112.062C60.5562 108.312 59.5146 104.771 58.6812 101.438H57.9C58.1083 104.979 58.2125 108.26 58.2125 111.281C58.3167 114.302 58.3687 117.635 58.3687 121.281V228H0.868744ZM186.506 228V0.5H331.194V54.0938H254.787V93.1562H321.037V141.594H254.787V228H186.506Z" fill="#FFC200"/>
</svg>
